# xmcd
#
# Track frame offsets:
# 150
# 19067
# 33235
# 49790
# 73957
# 94817
# 117827
# 123790
# 152665
# 176027
# 199697
#
# Disc length: 2969 seconds
#
#
# Revision: 0
# Processed by: cddbd v1.4PL0 Copyright (c) Steve Scherf et al.
# Submitted via: FreeRIP 2.30 
#
DISCID=8f0b970b
DTITLE=John Lee Hooker - Nothing but the blues
DYEAR=1969
DGENRE=Blues
TTITLE0=I Feel Good
TTITLE1=Baby Baby
TTITLE2=Dazie Mae
TTITLE3=Stand By
TTITLE4=Call it the Night
TTITLE5=Going Home
TTITLE6=We are cooking
TTITLE7=Looking Back over my Day
TTITLE8=Roll and Tumble
TTITLE9=Bottle of Wine
TTITLE10=Baby don't do me wrong
EXTD=
EXTT0=
EXTT1=
EXTT2=
EXTT3=
EXTT4=
EXTT5=
EXTT6=
EXTT7=
EXTT8=
EXTT9=
EXTT10=
PLAYORDER=
